<svg xmlns="http://www.w3.org/2000/svg" xmlns:xlink="http://www.w3.org/1999/xlink" width="500" zoomAndPan="magnify" viewBox="0 0 375 374.999991" height="500" preserveAspectRatio="xMidYMid meet" version="1.0"><defs><g/><clipPath id="fc16833d1f"><path d="M 69 69 L 306 69 L 306 306 L 69 306 Z M 69 69 " clip-rule="nonzero"/></clipPath><clipPath id="897ec08c28"><path d="M 97.394531 46.242188 L 328.757812 97.398438 L 277.601562 328.757812 L 46.242188 277.605469 Z M 97.394531 46.242188 " clip-rule="nonzero"/></clipPath><clipPath id="16d0670a51"><path d="M 213.074219 71.820312 C 149.1875 57.695312 85.945312 98.035156 71.820312 161.921875 C 57.691406 225.8125 98.035156 289.054688 161.921875 303.179688 C 225.8125 317.308594 289.054688 276.964844 303.179688 213.078125 C 317.304688 149.1875 276.964844 85.945312 213.074219 71.820312 " clip-rule="nonzero"/></clipPath><clipPath id="d50f39ee55"><path d="M 77 74 L 299 74 L 299 301 L 77 301 Z M 77 74 " clip-rule="nonzero"/></clipPath><clipPath id="81d15b5988"><path d="M 302.644531 296.542969 L 80.789062 304.519531 L 72.652344 78.164062 L 294.507812 70.191406 Z M 302.644531 296.542969 " clip-rule="nonzero"/></clipPath><clipPath id="02378cf1a5"><path d="M 302.644531 296.542969 L 80.789062 304.519531 L 72.652344 78.164062 L 294.507812 70.191406 Z M 302.644531 296.542969 " clip-rule="nonzero"/></clipPath><clipPath id="64aa2f2fe0"><path d="M 82 82 L 293 82 L 293 293 L 82 293 Z M 82 82 " clip-rule="nonzero"/></clipPath><clipPath id="5901a75940"><path d="M 71.148438 279.058594 L 95.933594 71.140625 L 303.851562 95.925781 L 279.066406 303.84375 Z M 71.148438 279.058594 " clip-rule="nonzero"/></clipPath><clipPath id="9b987aecc1"><path d="M 83.542969 175.097656 C 76.699219 232.511719 117.695312 284.605469 175.109375 291.449219 C 232.523438 298.292969 284.613281 257.296875 291.457031 199.882812 C 298.300781 142.46875 257.308594 90.378906 199.894531 83.535156 C 142.480469 76.691406 90.386719 117.683594 83.542969 175.097656 " clip-rule="nonzero"/></clipPath></defs><g clip-path="url(#fc16833d1f)"><g clip-path="url(#897ec08c28)"><g clip-path="url(#16d0670a51)"><path fill="#fdf9f7" d="M 97.394531 46.242188 L 328.757812 97.398438 L 277.601562 328.757812 L 46.242188 277.605469 Z M 97.394531 46.242188 " fill-opacity="1" fill-rule="nonzero"/></g></g></g><g clip-path="url(#d50f39ee55)"><g clip-path="url(#81d15b5988)"><g clip-path="url(#02378cf1a5)"><path fill="#0b0019" d="M 298.121094 178.761719 C 299.085938 197.75 295.039062 215.734375 287.105469 232.875 C 282.847656 242.070312 277.367188 250.507812 270.882812 258.328125 C 260.859375 270.410156 248.957031 280.117188 235.121094 287.4375 C 225.109375 292.734375 214.523438 296.511719 203.378906 298.4375 C 197.175781 299.507812 190.890625 300.558594 184.554688 300.222656 C 180.28125 299.996094 175.996094 299.917969 171.714844 299.535156 C 159.761719 298.472656 148.558594 295.042969 137.769531 290.023438 C 129.757812 286.296875 122.46875 281.421875 115.628906 275.832031 C 111.109375 272.140625 107.078125 267.988281 103.28125 263.582031 C 102.226562 262.363281 102.097656 260.886719 103.066406 260.117188 C 104.292969 259.144531 105.460938 259.4375 106.484375 260.535156 C 108.566406 262.761719 110.59375 265.03125 112.785156 267.160156 C 125.050781 279.132812 139.421875 287.414062 155.898438 292.019531 C 162.335938 293.816406 168.867188 294.984375 175.566406 295.414062 C 179.0625 295.636719 182.570312 295.882812 186.054688 295.878906 C 189.777344 295.878906 193.515625 295.351562 197.226562 294.863281 C 204.425781 293.910156 211.488281 292.277344 218.339844 289.84375 C 229.96875 285.707031 240.671875 279.890625 250.355469 272.160156 C 255.964844 267.679688 261.230469 262.855469 265.902344 257.417969 C 274.496094 247.421875 281.230469 236.269531 286.042969 223.972656 C 288.917969 216.621094 290.988281 209.058594 292.296875 201.273438 C 292.828125 198.128906 293.085938 194.960938 293.457031 191.804688 C 294.390625 183.835938 294.179688 175.847656 292.996094 168 C 291.339844 157.039062 288.285156 146.398438 283.398438 136.355469 C 279.574219 128.496094 274.933594 121.179688 269.300781 114.519531 C 262.667969 106.679688 255.042969 99.988281 246.339844 94.492188 C 235.046875 87.359375 222.867188 82.636719 209.726562 80.316406 C 201.007812 78.777344 192.21875 78.148438 183.429688 78.996094 C 167.449219 80.539062 152.363281 85.164062 138.4375 93.277344 C 129.382812 98.554688 121.226562 104.964844 113.886719 112.503906 C 103.554688 123.121094 95.714844 135.3125 90.039062 148.945312 C 85.914062 158.863281 83.320312 169.21875 82.222656 179.902344 C 81.707031 184.953125 81.429688 190.058594 81.648438 195.148438 C 82.167969 207.230469 84.265625 219.007812 88.683594 230.316406 C 88.960938 231.027344 89.289062 231.730469 89.460938 232.46875 C 89.691406 233.433594 89.605469 234.523438 88.519531 234.789062 C 87.515625 235.035156 86.230469 235.699219 85.472656 234.140625 C 84.28125 231.703125 83.375 229.148438 82.574219 226.578125 C 80.570312 220.152344 78.898438 213.636719 78.152344 206.917969 C 77.371094 199.875 76.808594 192.777344 77.230469 185.71875 C 78.476562 164.828125 84.65625 145.457031 95.964844 127.804688 C 100.632812 120.515625 106.023438 113.769531 112.191406 107.71875 C 123.488281 96.640625 136.40625 87.980469 151.167969 82.144531 C 158.21875 79.359375 165.464844 77.300781 172.890625 75.882812 C 180.6875 74.394531 188.632812 73.988281 196.511719 74.285156 C 210.496094 74.8125 223.9375 78.101562 236.667969 84.027344 C 245.042969 87.925781 252.785156 92.851562 259.863281 98.828125 C 277.15625 113.433594 288.550781 131.800781 294.527344 153.582031 C 295.65625 157.699219 296.40625 161.929688 297.179688 166.132812 C 297.9375 170.296875 297.933594 174.539062 298.121094 178.761719 Z M 298.121094 178.761719 " fill-opacity="1" fill-rule="nonzero"/></g></g></g><g clip-path="url(#64aa2f2fe0)"><g clip-path="url(#5901a75940)"><g clip-path="url(#9b987aecc1)"><path fill="#ffde59" d="M 71.148438 279.058594 L 95.933594 71.140625 L 303.851562 95.925781 L 279.066406 303.84375 Z M 71.148438 279.058594 " fill-opacity="1" fill-rule="nonzero"/></g></g></g><g fill="#0b0019" fill-opacity="1"><g transform="translate(121.526493, 193.039165)"><g><path d="M 32.6875 -4.09375 C 32.019531 -4.007812 31.039062 -4.035156 29.75 -4.171875 C 28.46875 -4.304688 27.148438 -5.859375 25.796875 -8.828125 C 24.753906 -6.703125 23.578125 -5.203125 22.265625 -4.328125 C 20.984375 -3.484375 19.316406 -2.929688 17.265625 -2.671875 L 16.9375 -2.625 C 13.601562 -2.363281 10.613281 -3.335938 7.96875 -5.546875 C 5.332031 -7.765625 3.34375 -10.742188 2 -14.484375 L 1.625 -15.515625 C 0.570312 -18.960938 0.320312 -22.609375 0.875 -26.453125 C 1.5 -29.992188 2.6875 -33.046875 4.4375 -35.609375 C 6.195312 -38.171875 8.335938 -40.203125 10.859375 -41.703125 C 13.390625 -43.210938 16.085938 -44.148438 18.953125 -44.515625 C 21.390625 -44.816406 23.644531 -44.707031 25.71875 -44.1875 C 27.800781 -43.675781 29.570312 -42.882812 31.03125 -41.8125 C 32.914062 -40.445312 34.128906 -38.863281 34.671875 -37.0625 C 34.960938 -36.070312 35.019531 -35.0625 34.84375 -34.03125 C 34.664062 -33.125 34.222656 -32.421875 33.515625 -31.921875 C 32.523438 -31.203125 31.265625 -30.75 29.734375 -30.5625 C 29.347656 -30.507812 28.984375 -30.488281 28.640625 -30.5 C 28.296875 -30.507812 28.175781 -30.375 28.28125 -30.09375 C 28.1875 -30.84375 28.035156 -31.59375 27.828125 -32.34375 C 27.648438 -33.007812 27.300781 -33.820312 26.78125 -34.78125 C 26.257812 -35.738281 25.410156 -36.585938 24.234375 -37.328125 C 23.066406 -38.066406 21.695312 -38.34375 20.125 -38.15625 C 17.914062 -37.78125 15.945312 -36.4375 14.21875 -34.125 C 12.5 -31.8125 11.390625 -29 10.890625 -25.6875 C 10.585938 -23.195312 10.804688 -20.75 11.546875 -18.34375 C 11.648438 -18.019531 11.859375 -17.425781 12.171875 -16.5625 C 12.484375 -15.707031 13.082031 -14.734375 13.96875 -13.640625 C 14.851562 -12.554688 15.941406 -11.722656 17.234375 -11.140625 C 18.523438 -10.554688 19.988281 -10.363281 21.625 -10.5625 C 23 -10.738281 24.007812 -11.15625 24.65625 -11.8125 C 25.300781 -12.46875 25.753906 -13.160156 26.015625 -13.890625 C 26.054688 -14.453125 26.140625 -14.976562 26.265625 -15.46875 C 26.484375 -16.625 26.628906 -18.109375 26.703125 -19.921875 C 25.285156 -19.878906 24.085938 -19.796875 23.109375 -19.671875 C 21.484375 -19.460938 19.816406 -19.15625 18.109375 -18.75 C 18.109375 -18.75 18.054688 -18.953125 17.953125 -19.359375 C 17.890625 -19.523438 17.816406 -19.867188 17.734375 -20.390625 C 17.660156 -20.910156 17.8125 -21.535156 18.1875 -22.265625 C 18.570312 -23.003906 19.289062 -23.5 20.34375 -23.75 C 21.488281 -23.945312 22.5625 -24.109375 23.5625 -24.234375 C 25.375 -24.460938 26.972656 -24.566406 28.359375 -24.546875 C 30.046875 -24.578125 31.675781 -24.691406 33.25 -24.890625 C 34.800781 -25.085938 36.4375 -25.4375 38.15625 -25.9375 C 38.300781 -25.75 38.457031 -25.398438 38.625 -24.890625 C 39.226562 -22.921875 38.664062 -21.648438 36.9375 -21.078125 L 36.578125 -21.03125 C 36.453125 -20.976562 36.109375 -20.914062 35.546875 -20.84375 C 35.796875 -19.53125 35.890625 -18.4375 35.828125 -17.5625 C 35.773438 -16.6875 35.691406 -15.816406 35.578125 -14.953125 C 35.273438 -13.390625 35.160156 -11.796875 35.234375 -10.171875 C 35.285156 -9.554688 35.398438 -8.929688 35.578125 -8.296875 C 35.929688 -7.179688 36.367188 -6.253906 36.890625 -5.515625 C 35.609375 -4.753906 34.207031 -4.28125 32.6875 -4.09375 Z M 32.6875 -4.09375 "/></g></g></g><g fill="#0b0019" fill-opacity="1"><g transform="translate(161.373825, 188.045775)"><g><path d="M 13.09375 -6.515625 C 14.40625 -6.785156 15.53125 -7.503906 16.46875 -8.671875 C 17.40625 -9.847656 18.140625 -11.164062 18.671875 -12.625 C 19.203125 -14.082031 19.554688 -15.390625 19.734375 -16.546875 C 19.921875 -17.710938 19.984375 -18.914062 19.921875 -20.15625 C 19.859375 -21.394531 19.671875 -22.550781 19.359375 -23.625 C 18.984375 -24.738281 18.453125 -25.660156 17.765625 -26.390625 C 17.078125 -27.128906 16.179688 -27.429688 15.078125 -27.296875 C 13.710938 -27.046875 12.5625 -26.351562 11.625 -25.21875 C 10.6875 -24.082031 9.929688 -22.789062 9.359375 -21.34375 C 8.796875 -19.90625 8.425781 -18.609375 8.25 -17.453125 C 8.082031 -16.296875 8.035156 -15.101562 8.109375 -13.875 C 8.179688 -12.65625 8.375 -11.53125 8.6875 -10.5 L 8.984375 -9.59375 C 9.179688 -8.9375 9.632812 -8.222656 10.34375 -7.453125 C 11.050781 -6.679688 11.96875 -6.367188 13.09375 -6.515625 Z M 12.46875 -1.765625 L 11.828125 -1.6875 C 9.617188 -1.414062 7.59375 -1.734375 5.75 -2.640625 C 3.914062 -3.554688 2.425781 -5.015625 1.28125 -7.015625 C 0.769531 -7.867188 0.351562 -8.800781 0.03125 -9.8125 C -0.363281 -11.132812 -0.59375 -12.582031 -0.65625 -14.15625 C -0.738281 -16.957031 -0.140625 -19.632812 1.140625 -22.1875 C 2.421875 -24.738281 4.289062 -26.910156 6.75 -28.703125 C 9.207031 -30.503906 12.242188 -31.628906 15.859375 -32.078125 C 19.335938 -32.515625 22.28125 -31.613281 24.6875 -29.375 C 26.269531 -27.914062 27.394531 -26.085938 28.0625 -23.890625 C 29.113281 -20.484375 29.03125 -17.078125 27.8125 -13.671875 C 27.09375 -11.671875 26.03125 -9.832031 24.625 -8.15625 C 23.226562 -6.488281 21.5 -5.085938 19.4375 -3.953125 C 17.382812 -2.816406 15.0625 -2.085938 12.46875 -1.765625 Z M 12.46875 -1.765625 "/></g></g></g><g fill="#0b0019" fill-opacity="1"><g transform="translate(192.296814, 184.170721)"><g><path d="M 13.09375 -6.515625 C 14.40625 -6.785156 15.53125 -7.503906 16.46875 -8.671875 C 17.40625 -9.847656 18.140625 -11.164062 18.671875 -12.625 C 19.203125 -14.082031 19.554688 -15.390625 19.734375 -16.546875 C 19.921875 -17.710938 19.984375 -18.914062 19.921875 -20.15625 C 19.859375 -21.394531 19.671875 -22.550781 19.359375 -23.625 C 18.984375 -24.738281 18.453125 -25.660156 17.765625 -26.390625 C 17.078125 -27.128906 16.179688 -27.429688 15.078125 -27.296875 C 13.710938 -27.046875 12.5625 -26.351562 11.625 -25.21875 C 10.6875 -24.082031 9.929688 -22.789062 9.359375 -21.34375 C 8.796875 -19.90625 8.425781 -18.609375 8.25 -17.453125 C 8.082031 -16.296875 8.035156 -15.101562 8.109375 -13.875 C 8.179688 -12.65625 8.375 -11.53125 8.6875 -10.5 L 8.984375 -9.59375 C 9.179688 -8.9375 9.632812 -8.222656 10.34375 -7.453125 C 11.050781 -6.679688 11.96875 -6.367188 13.09375 -6.515625 Z M 12.46875 -1.765625 L 11.828125 -1.6875 C 9.617188 -1.414062 7.59375 -1.734375 5.75 -2.640625 C 3.914062 -3.554688 2.425781 -5.015625 1.28125 -7.015625 C 0.769531 -7.867188 0.351562 -8.800781 0.03125 -9.8125 C -0.363281 -11.132812 -0.59375 -12.582031 -0.65625 -14.15625 C -0.738281 -16.957031 -0.140625 -19.632812 1.140625 -22.1875 C 2.421875 -24.738281 4.289062 -26.910156 6.75 -28.703125 C 9.207031 -30.503906 12.242188 -31.628906 15.859375 -32.078125 C 19.335938 -32.515625 22.28125 -31.613281 24.6875 -29.375 C 26.269531 -27.914062 27.394531 -26.085938 28.0625 -23.890625 C 29.113281 -20.484375 29.03125 -17.078125 27.8125 -13.671875 C 27.09375 -11.671875 26.03125 -9.832031 24.625 -8.15625 C 23.226562 -6.488281 21.5 -5.085938 19.4375 -3.953125 C 17.382812 -2.816406 15.0625 -2.085938 12.46875 -1.765625 Z M 12.46875 -1.765625 "/></g></g></g><g fill="#0b0019" fill-opacity="1"><g transform="translate(223.219798, 180.295668)"><g><path d="M 27.296875 -3.421875 C 26.546875 -3.328125 25.488281 -3.378906 24.125 -3.578125 C 22.757812 -3.773438 21.6875 -5.03125 20.90625 -7.34375 C 20.707031 -7.96875 20.570312 -10.078125 20.5 -13.671875 C 18.59375 -9.085938 16.941406 -5.976562 15.546875 -4.34375 C 14.085938 -2.65625 12.394531 -1.691406 10.46875 -1.453125 C 8.382812 -1.191406 6.507812 -1.539062 4.84375 -2.5 C 3.1875 -3.457031 1.84375 -4.929688 0.8125 -6.921875 C 0.425781 -7.679688 0.109375 -8.476562 -0.140625 -9.3125 C -0.585938 -10.769531 -0.847656 -12.375 -0.921875 -14.125 C -0.984375 -16.90625 -0.460938 -19.5625 0.640625 -22.09375 C 1.753906 -24.625 3.347656 -26.765625 5.421875 -28.515625 C 7.492188 -30.273438 9.9375 -31.332031 12.75 -31.6875 C 14.445312 -31.90625 15.945312 -31.8125 17.25 -31.40625 C 18.5625 -31.007812 20.09375 -29.660156 21.84375 -27.359375 C 22.3125 -31.984375 22.597656 -35.722656 22.703125 -38.578125 C 22.804688 -41.441406 22.707031 -43.375 22.40625 -44.375 C 24.320312 -44.53125 26.144531 -44.414062 27.875 -44.03125 C 29.613281 -43.65625 30.707031 -43.113281 31.15625 -42.40625 C 31.238281 -42.21875 31.328125 -41.976562 31.421875 -41.6875 C 31.816406 -40.4375 31.953125 -38.484375 31.828125 -35.828125 C 31.710938 -33.179688 31.453125 -30.023438 31.046875 -26.359375 C 30.742188 -23.390625 30.5 -20.46875 30.3125 -17.59375 C 29.988281 -12.53125 30.179688 -8.832031 30.890625 -6.5 C 31.160156 -5.601562 31.375 -5.050781 31.53125 -4.84375 C 30.238281 -4.082031 28.828125 -3.609375 27.296875 -3.421875 Z M 13.34375 -8.671875 C 14.5625 -8.828125 15.644531 -9.660156 16.59375 -11.171875 C 17.539062 -12.691406 18.382812 -14.519531 19.125 -16.65625 C 19.875 -18.800781 20.515625 -21.066406 21.046875 -23.453125 C 21.046875 -23.960938 20.988281 -24.414062 20.875 -24.8125 C 20.613281 -25.601562 20.050781 -26.273438 19.1875 -26.828125 C 18.332031 -27.378906 17.066406 -27.550781 15.390625 -27.34375 C 13.710938 -27.082031 12.332031 -26.347656 11.25 -25.140625 C 10.164062 -23.941406 9.359375 -22.566406 8.828125 -21.015625 C 7.898438 -18.171875 7.828125 -15.460938 8.609375 -12.890625 C 8.609375 -12.828125 8.710938 -12.472656 8.921875 -11.828125 C 9.140625 -11.191406 9.640625 -10.46875 10.421875 -9.65625 C 11.203125 -8.851562 12.175781 -8.523438 13.34375 -8.671875 Z M 13.34375 -8.671875 "/></g></g></g><g fill="#0b0019" fill-opacity="1"><g transform="translate(141.333794, 244.979388)"><g><path d="M 18.1875 -1.703125 C 15.644531 -1.390625 12.898438 -1.171875 9.953125 -1.046875 C 9.304688 -1.003906 8.648438 -0.945312 7.984375 -0.875 C 6.265625 -0.757812 4.859375 -0.992188 3.765625 -1.578125 C 2.671875 -2.160156 1.890625 -3.222656 1.421875 -4.765625 C 1.054688 -6.210938 0.957031 -8.285156 1.125 -10.984375 C 1.289062 -13.679688 1.566406 -16.625 1.953125 -19.8125 C 2.273438 -22.507812 2.535156 -25.128906 2.734375 -27.671875 C 2.929688 -30.222656 2.929688 -32.90625 2.734375 -35.71875 C 1.210938 -34.800781 0.3125 -34.195312 0.03125 -33.90625 C -0.9375 -34.84375 -1.59375 -35.863281 -1.9375 -36.96875 C -2.070312 -37.332031 -2.125 -37.945312 -2.09375 -38.8125 C -2.070312 -39.6875 -1.519531 -40.488281 -0.4375 -41.21875 C 0.707031 -41.914062 2.300781 -42.390625 4.34375 -42.640625 C 6.382812 -42.898438 9.191406 -43.066406 12.765625 -43.140625 C 16.503906 -43.242188 19.285156 -43.410156 21.109375 -43.640625 C 23.023438 -43.878906 24.414062 -44.203125 25.28125 -44.609375 C 25.375 -44.421875 25.519531 -44.039062 25.71875 -43.46875 C 26.082031 -42.195312 25.910156 -40.9375 25.203125 -39.6875 C 24.492188 -38.4375 22.925781 -37.554688 20.5 -37.046875 L 19.6875 -36.921875 C 18.09375 -36.722656 16.207031 -36.6875 14.03125 -36.8125 C 12.707031 -36.84375 10.222656 -36.84375 6.578125 -36.8125 C 9.484375 -35.625 11.0625 -34.800781 11.3125 -34.34375 C 11.425781 -34.09375 11.53125 -33.800781 11.625 -33.46875 C 12.15625 -31.800781 12.164062 -28.484375 11.65625 -23.515625 C 13.894531 -23.816406 15.863281 -24.15625 17.5625 -24.53125 C 19.257812 -24.90625 21.125 -25.378906 23.15625 -25.953125 C 23.300781 -25.742188 23.453125 -25.390625 23.609375 -24.890625 C 23.785156 -24.328125 23.816406 -23.691406 23.703125 -22.984375 C 23.585938 -22.273438 23.191406 -21.753906 22.515625 -21.421875 C 21.328125 -20.859375 20.097656 -20.5 18.828125 -20.34375 L 17.671875 -20.203125 C 16.972656 -20.109375 15.835938 -20.0625 14.265625 -20.0625 L 11.3125 -19.984375 C 10.71875 -15.265625 10.519531 -10.738281 10.71875 -6.40625 C 14.738281 -7.550781 18.257812 -8.742188 21.28125 -9.984375 C 24.351562 -11.160156 26.195312 -11.785156 26.8125 -11.859375 C 26.90625 -11.878906 26.875 -11.957031 26.71875 -12.09375 C 27.007812 -11.5625 27.238281 -10.992188 27.40625 -10.390625 C 27.84375 -8.898438 27.753906 -7.34375 27.140625 -5.71875 C 26.535156 -4.09375 25.054688 -3 22.703125 -2.4375 C 21.273438 -2.144531 19.769531 -1.898438 18.1875 -1.703125 Z M 18.1875 -1.703125 "/></g></g></g><g fill="#0b0019" fill-opacity="1"><g transform="translate(166.239393, 241.858392)"><g><path d="M 27.625 -3.46875 C 26.851562 -3.363281 25.785156 -3.410156 24.421875 -3.609375 C 23.054688 -3.816406 21.992188 -5.078125 21.234375 -7.390625 C 20.992188 -8.140625 20.804688 -10.164062 20.671875 -13.46875 C 18.804688 -9 17.195312 -5.957031 15.84375 -4.34375 C 14.382812 -2.6875 12.6875 -1.734375 10.75 -1.484375 C 8.675781 -1.222656 6.796875 -1.566406 5.109375 -2.515625 C 3.429688 -3.472656 2.097656 -4.957031 1.109375 -6.96875 C 0.722656 -7.71875 0.40625 -8.515625 0.15625 -9.359375 C -0.289062 -10.804688 -0.554688 -12.40625 -0.640625 -14.15625 C -0.691406 -16.9375 -0.164062 -19.59375 0.9375 -22.125 C 2.050781 -24.65625 3.644531 -26.800781 5.71875 -28.5625 C 7.789062 -30.320312 10.238281 -31.378906 13.0625 -31.734375 C 14.726562 -31.941406 16.203125 -31.851562 17.484375 -31.46875 C 18.765625 -31.09375 20.320312 -29.75 22.15625 -27.4375 C 22.164062 -30.414062 22.085938 -32.234375 21.921875 -32.890625 C 23.835938 -33.035156 25.664062 -32.921875 27.40625 -32.546875 C 29.15625 -32.179688 30.242188 -31.632812 30.671875 -30.90625 C 30.835938 -30.613281 30.96875 -30.289062 31.0625 -29.9375 C 31.394531 -28.894531 31.53125 -27.519531 31.46875 -25.8125 C 31.414062 -24.113281 31.238281 -22.097656 30.9375 -19.765625 C 30.519531 -16.859375 30.3125 -14.054688 30.3125 -11.359375 C 30.300781 -9.816406 30.488281 -8.410156 30.875 -7.140625 C 31.207031 -6.054688 31.53125 -5.300781 31.84375 -4.875 C 30.539062 -4.125 29.132812 -3.65625 27.625 -3.46875 Z M 13.65625 -8.703125 C 14.800781 -8.847656 15.859375 -9.628906 16.828125 -11.046875 C 17.796875 -12.472656 18.660156 -14.195312 19.421875 -16.21875 C 20.179688 -18.238281 20.796875 -20.375 21.265625 -22.625 C 21.367188 -23.488281 21.335938 -24.234375 21.171875 -24.859375 C 20.972656 -25.523438 20.476562 -26.171875 19.6875 -26.796875 C 18.90625 -27.421875 17.582031 -27.613281 15.71875 -27.375 C 14.019531 -27.125 12.625 -26.394531 11.53125 -25.1875 C 10.4375 -23.976562 9.625 -22.597656 9.09375 -21.046875 C 8.1875 -18.234375 8.125 -15.523438 8.90625 -12.921875 C 8.90625 -12.859375 9.007812 -12.503906 9.21875 -11.859375 C 9.425781 -11.222656 9.929688 -10.503906 10.734375 -9.703125 C 11.546875 -8.898438 12.519531 -8.566406 13.65625 -8.703125 Z M 13.65625 -8.703125 "/></g></g></g><g fill="#0b0019" fill-opacity="1"><g transform="translate(199.371666, 237.706486)"><g><path d="M 13.03125 -0.21875 C 10.894531 0.0507812 8.90625 -0.476562 7.0625 -1.8125 C 5.6875 -2.738281 4.679688 -4.191406 4.046875 -6.171875 C 3.609375 -7.753906 3.457031 -9.539062 3.59375 -11.53125 C 3.738281 -13.519531 4.015625 -15.675781 4.421875 -18 C 4.710938 -19.875 5.007812 -22.171875 5.3125 -24.890625 C 3.25 -24.628906 1.5 -24.328125 0.0625 -23.984375 C 0.0625 -23.984375 0.015625 -24.175781 -0.078125 -24.5625 C -0.140625 -24.75 -0.207031 -25.09375 -0.28125 -25.59375 C -0.351562 -26.09375 -0.203125 -26.710938 0.171875 -27.453125 C 0.546875 -28.191406 1.257812 -28.6875 2.3125 -28.9375 L 2.484375 -28.984375 C 3.398438 -29.148438 4.421875 -29.304688 5.546875 -29.453125 C 5.640625 -33.003906 5.300781 -36.257812 4.53125 -39.21875 C 6.507812 -39.363281 8.445312 -39.222656 10.34375 -38.796875 C 12.25 -38.367188 13.359375 -37.8125 13.671875 -37.125 C 14.296875 -35.070312 14.660156 -32.703125 14.765625 -30.015625 C 16.796875 -30.273438 18.554688 -30.632812 20.046875 -31.09375 C 20.234375 -30.894531 20.40625 -30.53125 20.5625 -30 C 21.164062 -28.09375 20.59375 -26.863281 18.84375 -26.3125 C 17.457031 -25.976562 16.003906 -25.71875 14.484375 -25.53125 C 14.265625 -23.6875 14.050781 -22.046875 13.84375 -20.609375 C 13.4375 -18.242188 13.179688 -16.023438 13.078125 -13.953125 C 12.984375 -12.046875 13.175781 -10.289062 13.65625 -8.6875 C 14.175781 -7 15.097656 -6.007812 16.421875 -5.71875 C 17.003906 -5.550781 17.609375 -5.503906 18.234375 -5.578125 C 18.578125 -5.628906 19.085938 -5.769531 19.765625 -6 C 20.441406 -6.226562 20.984375 -6.550781 21.390625 -6.96875 L 21.21875 -6.9375 C 21.082031 -6.925781 20.988281 -6.9375 20.9375 -6.96875 C 20.894531 -7 20.890625 -6.988281 20.921875 -6.9375 C 20.921875 -6.894531 20.929688 -6.785156 20.953125 -6.609375 C 20.984375 -6.429688 20.941406 -6.078125 20.828125 -5.546875 C 20.472656 -4.328125 19.78125 -3.316406 18.75 -2.515625 C 17.101562 -1.253906 15.195312 -0.488281 13.03125 -0.21875 Z M 13.03125 -0.21875 "/></g></g></g><g fill="#0b0019" fill-opacity="1"><g transform="translate(224.451682, 234.563633)"><g><path d="M 11.484375 -1.34375 C 8.597656 -0.976562 6.054688 -1.050781 3.859375 -1.5625 C 1.953125 -2.019531 0.507812 -2.75 -0.46875 -3.75 C -0.925781 -4.207031 -1.238281 -4.707031 -1.40625 -5.25 C -1.601562 -5.863281 -1.628906 -6.550781 -1.484375 -7.3125 C -1.265625 -8.289062 -0.8125 -9.046875 -0.125 -9.578125 C 0.882812 -10.378906 2.144531 -10.875 3.65625 -11.0625 C 4 -11.101562 4.320312 -11.117188 4.625 -11.109375 C 4.9375 -11.097656 5.054688 -11.25 4.984375 -11.5625 C 5.085938 -10.851562 5.234375 -10.1875 5.421875 -9.5625 C 5.554688 -9.09375 5.8125 -8.460938 6.1875 -7.671875 C 6.570312 -6.878906 7.484375 -6.257812 8.921875 -5.8125 C 9.597656 -5.664062 10.191406 -5.625 10.703125 -5.6875 C 11.234375 -5.75 11.769531 -5.972656 12.3125 -6.359375 C 12.863281 -6.742188 13.285156 -7.296875 13.578125 -8.015625 C 13.773438 -8.640625 13.769531 -9.3125 13.5625 -10.03125 C 13.394531 -10.675781 12.898438 -11.3125 12.078125 -11.9375 C 11.253906 -12.570312 9.882812 -13.164062 7.96875 -13.71875 C 4.84375 -14.539062 2.535156 -15.882812 1.046875 -17.75 C 0.484375 -18.53125 0.0625 -19.328125 -0.21875 -20.140625 C -0.570312 -21.316406 -0.582031 -22.585938 -0.25 -23.953125 C 0.675781 -27.671875 4.578125 -30.175781 11.453125 -31.46875 L 12.859375 -31.671875 C 15.671875 -32.023438 17.929688 -31.796875 19.640625 -30.984375 C 20.929688 -30.378906 21.742188 -29.535156 22.078125 -28.453125 C 22.222656 -28.003906 22.273438 -27.5 22.234375 -26.9375 C 22.148438 -25.988281 21.84375 -25.242188 21.3125 -24.703125 C 20.394531 -23.734375 19.21875 -23.160156 17.78125 -22.984375 C 17.375 -22.929688 17.234375 -22.773438 17.359375 -22.515625 C 17.304688 -22.960938 17.210938 -23.4375 17.078125 -23.9375 C 16.847656 -24.675781 16.410156 -25.484375 15.765625 -26.359375 C 15.117188 -27.242188 13.78125 -27.640625 11.75 -27.546875 L 11.234375 -27.515625 C 9.378906 -27.285156 8.3125 -26.3125 8.03125 -24.59375 C 8.03125 -24.101562 8.082031 -23.671875 8.1875 -23.296875 C 8.476562 -22.347656 9.175781 -21.578125 10.28125 -20.984375 C 11.382812 -20.390625 12.570312 -19.9375 13.84375 -19.625 C 19.425781 -18 22.675781 -15.703125 23.59375 -12.734375 C 24.007812 -11.347656 23.863281 -9.867188 23.15625 -8.296875 C 21.289062 -4.398438 17.398438 -2.082031 11.484375 -1.34375 Z M 11.484375 -1.34375 "/></g></g></g></svg>